<?xml version="1.0" standalone="no"?>
<!DOCTYPE svg PUBLIC "-//W3C//DTD SVG 20010904//EN"
 "http://www.w3.org/TR/2001/REC-SVG-20010904/DTD/svg10.dtd">
<svg version="1.0" xmlns="http://www.w3.org/2000/svg"
 width="514.000000pt" height="514.000000pt" viewBox="0 0 514.000000 514.000000"
 preserveAspectRatio="xMidYMid meet">
<metadata>
Created by potrace 1.16, written by Peter Selinger 2001-2019
</metadata>
<g transform="translate(0.000000,514.000000) scale(0.100000,-0.100000)"
fill="#000000" stroke="none">
<path d="M1363 4634 c-9 -25 2 -643 13 -653 5 -4 27 -6 49 -3 35 4 42 9 60 46
31 64 46 67 419 64 l321 -3 0 -135 0 -135 -555 -5 c-545 -5 -555 -5 -555 -25
0 -14 14 -26 45 -41 25 -12 54 -32 65 -44 20 -22 20 -36 20 -1125 0 -1089 0
-1103 -20 -1125 -11 -13 -39 -31 -61 -41 -42 -19 -62 -45 -46 -61 4 -4 527 -8
1162 -9 l1155 0 3 250 2 251 -40 0 c-34 0 -41 -4 -46 -25 -3 -14 -22 -38 -40
-55 l-35 -30 -707 2 -707 3 0 835 0 835 183 3 182 2 0 -720 0 -720 355 0 355
0 0 184 0 184 108 7 c330 20 525 76 667 190 182 146 258 305 259 540 1 211
-52 343 -194 485 -167 168 -343 229 -707 248 l-128 7 -3 138 -3 138 345 -3
345 -3 30 -29 c16 -16 33 -42 36 -57 6 -27 10 -29 56 -29 l48 0 3 336 c2 185
1 338 -1 340 -2 2 -550 4 -1218 4 -1088 0 -1214 -2 -1220 -16z m1792 -1268
c78 -28 125 -69 163 -141 23 -43 27 -62 27 -140 0 -51 -6 -107 -14 -129 -15
-44 -90 -130 -131 -151 -38 -19 -180 -47 -220 -43 l-35 3 -3 319 -2 319 74 -6
c41 -4 104 -18 141 -31z"/>
<path d="M1178 1208 c15 -15 17 -258 2 -258 -5 0 -10 -4 -10 -10 0 -5 19 -10
42 -10 33 0 39 3 30 12 -8 8 -12 54 -12 140 0 119 1 128 19 128 10 0 24 -7 32
-16 16 -19 15 -79 -1 -98 -16 -21 3 -28 28 -10 29 20 31 93 4 117 -23 21 -154
25 -134 5z"/>
<path d="M2885 1086 c-11 -16 -15 -41 -13 -72 2 -37 8 -51 30 -67 35 -26 73
-16 98 26 25 40 25 64 0 105 -17 27 -25 32 -60 32 -31 0 -43 -5 -55 -24z"/>
<path d="M3310 1091 c-13 -25 -13 -54 1 -68 8 -8 7 -16 -2 -30 -18 -29 -5 -53
28 -53 39 0 55 -13 51 -41 -4 -32 -52 -50 -74 -27 -13 13 -14 20 -4 38 10 18
9 21 -2 18 -19 -7 -21 -43 -3 -62 36 -35 115 -5 115 44 0 16 7 20 31 20 30 0
31 2 25 31 -3 17 -6 58 -6 90 l0 59 -55 0 -55 0 11 -27 c5 -15 7 -38 4 -51 -4
-17 -2 -23 7 -20 7 3 14 21 16 41 3 29 7 37 23 37 17 0 19 -7 19 -75 0 -79 -7
-88 -44 -60 -11 8 -32 15 -48 15 -27 0 -37 13 -19 24 5 3 7 24 4 46 -4 25 -1
46 7 55 10 12 10 15 -3 15 -9 0 -21 -9 -27 -19z"/>
</g>
</svg>
